<svg xmlns="http://www.w3.org/2000/svg" viewBox="0 0 24 24" width="500" height="500" shape-rendering="crispEdges">
  <rect x="10" y="0" width="1" height="1" fill="#833e21" />
  <rect x="11" y="0" width="1" height="1" fill="#833e21" />
  <rect x="8" y="1" width="1" height="1" fill="#833e21" />
  <rect x="9" y="1" width="1" height="1" fill="#fac26d" />
  <rect x="10" y="1" width="1" height="1" fill="#fac26d" />
  <rect x="11" y="1" width="1" height="1" fill="#fac26d" />
  <rect x="12" y="1" width="1" height="1" fill="#833e21" />
  <rect x="7" y="2" width="1" height="1" fill="#833e21" />
  <rect x="8" y="2" width="1" height="1" fill="#fa902b" />
  <rect x="9" y="2" width="1" height="1" fill="#fa902b" />
  <rect x="10" y="2" width="1" height="1" fill="#ed6126" />
  <rect x="11" y="2" width="1" height="1" fill="#fa902b" />
  <rect x="12" y="2" width="1" height="1" fill="#fac26d" />
  <rect x="13" y="2" width="1" height="1" fill="#833e21" />
  <rect x="6" y="3" width="1" height="1" fill="#833e21" />
  <rect x="7" y="3" width="1" height="1" fill="#fa902b" />
  <rect x="8" y="3" width="1" height="1" fill="#fa902b" />
  <rect x="9" y="3" width="1" height="1" fill="#fa902b" />
  <rect x="10" y="3" width="1" height="1" fill="#fa902b" />
  <rect x="11" y="3" width="1" height="1" fill="#fa902b" />
  <rect x="12" y="3" width="1" height="1" fill="#fa902b" />
  <rect x="13" y="3" width="1" height="1" fill="#fac26d" />
  <rect x="14" y="3" width="1" height="1" fill="#833e21" />
  <rect x="5" y="4" width="1" height="1" fill="#833e21" />
  <rect x="6" y="4" width="1" height="1" fill="#fac26d" />
  <rect x="7" y="4" width="1" height="1" fill="#b93821" />
  <rect x="8" y="4" width="1" height="1" fill="#b93821" />
  <rect x="9" y="4" width="1" height="1" fill="#fa902b" />
  <rect x="10" y="4" width="1" height="1" fill="#fa902b" />
  <rect x="11" y="4" width="1" height="1" fill="#ed6126" />
  <rect x="12" y="4" width="1" height="1" fill="#ed6126" />
  <rect x="13" y="4" width="1" height="1" fill="#fa902b" />
  <rect x="14" y="4" width="1" height="1" fill="#fac26d" />
  <rect x="15" y="4" width="1" height="1" fill="#833e21" />
  <rect x="19" y="4" width="1" height="1" fill="#ac412f" />
  <rect x="20" y="4" width="1" height="1" fill="#ac412f" />
  <rect x="21" y="4" width="1" height="1" fill="#ac412f" />
  <rect x="3" y="5" width="1" height="1" fill="#833e21" />
  <rect x="4" y="5" width="1" height="1" fill="#ab442f" />
  <rect x="5" y="5" width="1" height="1" fill="#fa902b" />
  <rect x="6" y="5" width="1" height="1" fill="#fa902b" />
  <rect x="7" y="5" width="1" height="1" fill="#fa902b" />
  <rect x="8" y="5" width="1" height="1" fill="#fa902b" />
  <rect x="9" y="5" width="1" height="1" fill="#b93821" />
  <rect x="10" y="5" width="1" height="1" fill="#b93821" />
  <rect x="11" y="5" width="1" height="1" fill="#b93821" />
  <rect x="12" y="5" width="1" height="1" fill="#ed6126" />
  <rect x="13" y="5" width="1" height="1" fill="#ed6126" />
  <rect x="14" y="5" width="1" height="1" fill="#ed6126" />
  <rect x="18" y="5" width="1" height="1" fill="#ac412f" />
  <rect x="19" y="5" width="1" height="1" fill="#fac26d" />
  <rect x="20" y="5" width="1" height="1" fill="#fac26d" />
  <rect x="21" y="5" width="1" height="1" fill="#ac412f" />
  <rect x="2" y="6" width="1" height="1" fill="#ab442f" />
  <rect x="3" y="6" width="1" height="1" fill="#fac26d" />
  <rect x="4" y="6" width="1" height="1" fill="#fac26d" />
  <rect x="5" y="6" width="1" height="1" fill="#fa902b" />
  <rect x="6" y="6" width="1" height="1" fill="#fac26d" />
  <rect x="7" y="6" width="1" height="1" fill="#fac26d" />
  <rect x="8" y="6" width="1" height="1" fill="#fac26d" />
  <rect x="9" y="6" width="1" height="1" fill="#fa902b" />
  <rect x="10" y="6" width="1" height="1" fill="#fac26d" />
  <rect x="11" y="6" width="1" height="1" fill="#fa902b" />
  <rect x="12" y="6" width="1" height="1" fill="#b93821" />
  <rect x="13" y="6" width="1" height="1" fill="#b93821" />
  <rect x="14" y="6" width="1" height="1" fill="#b93821" />
  <rect x="15" y="6" width="1" height="1" fill="#b93821" />
  <rect x="17" y="6" width="1" height="1" fill="#ac412f" />
  <rect x="18" y="6" width="1" height="1" fill="#fac26d" />
  <rect x="19" y="6" width="1" height="1" fill="#ed6126" />
  <rect x="20" y="6" width="1" height="1" fill="#ed6126" />
  <rect x="21" y="6" width="1" height="1" fill="#ac412f" />
  <rect x="1" y="7" width="1" height="1" fill="#ab442f" />
  <rect x="2" y="7" width="1" height="1" fill="#fac26d" />
  <rect x="3" y="7" width="1" height="1" fill="#fac26d" />
  <rect x="4" y="7" width="1" height="1" fill="#fa902b" />
  <rect x="5" y="7" width="1" height="1" fill="#fa902b" />
  <rect x="6" y="7" width="1" height="1" fill="#fa902b" />
  <rect x="7" y="7" width="1" height="1" fill="#fa902b" />
  <rect x="8" y="7" width="1" height="1" fill="#6d2319" />
  <rect x="9" y="7" width="1" height="1" fill="#fa902b" />
  <rect x="10" y="7" width="1" height="1" fill="#fac26d" />
  <rect x="11" y="7" width="1" height="1" fill="#fa902b" />
  <rect x="12" y="7" width="1" height="1" fill="#fa902b" />
  <rect x="13" y="7" width="1" height="1" fill="#fa902b" />
  <rect x="14" y="7" width="1" height="1" fill="#b93821" />
  <rect x="15" y="7" width="1" height="1" fill="#fa902b" />
  <rect x="16" y="7" width="1" height="1" fill="#b93821" />
  <rect x="17" y="7" width="1" height="1" fill="#fa902b" />
  <rect x="18" y="7" width="1" height="1" fill="#fa902b" />
  <rect x="19" y="7" width="1" height="1" fill="#ed6126" />
  <rect x="20" y="7" width="1" height="1" fill="#ed6126" />
  <rect x="0" y="8" width="1" height="1" fill="#ab442f" />
  <rect x="1" y="8" width="1" height="1" fill="#ff8652" />
  <rect x="2" y="8" width="1" height="1" fill="#fac26d" />
  <rect x="3" y="8" width="1" height="1" fill="#fa902b" />
  <rect x="4" y="8" width="1" height="1" fill="#ffffff" />
  <rect x="5" y="8" width="1" height="1" fill="#ffffff" />
  <rect x="6" y="8" width="1" height="1" fill="#fa902b" />
  <rect x="7" y="8" width="1" height="1" fill="#fa902b" />
  <rect x="8" y="8" width="1" height="1" fill="#ed6126" />
  <rect x="9" y="8" width="1" height="1" fill="#6d2319" />
  <rect x="10" y="8" width="1" height="1" fill="#fac26d" />
  <rect x="11" y="8" width="1" height="1" fill="#fac26d" />
  <rect x="12" y="8" width="1" height="1" fill="#fa902b" />
  <rect x="13" y="8" width="1" height="1" fill="#fa902b" />
  <rect x="14" y="8" width="1" height="1" fill="#fa902b" />
  <rect x="15" y="8" width="1" height="1" fill="#fa902b" />
  <rect x="16" y="8" width="1" height="1" fill="#fa902b" />
  <rect x="17" y="8" width="1" height="1" fill="#fa902b" />
  <rect x="18" y="8" width="1" height="1" fill="#fa902b" />
  <rect x="19" y="8" width="1" height="1" fill="#fa902b" />
  <rect x="20" y="8" width="1" height="1" fill="#ac412f" />
  <rect x="0" y="9" width="1" height="1" fill="#ab442f" />
  <rect x="1" y="9" width="1" height="1" fill="#fa902b" />
  <rect x="2" y="9" width="1" height="1" fill="#fa902b" />
  <rect x="3" y="9" width="1" height="1" fill="#ffffff" />
  <rect x="4" y="9" width="1" height="1" fill="#000000" />
  <rect x="5" y="9" width="1" height="1" fill="#000000" />
  <rect x="6" y="9" width="1" height="1" fill="#ffffff" />
  <rect x="7" y="9" width="1" height="1" fill="#fa902b" />
  <rect x="8" y="9" width="1" height="1" fill="#ed6126" />
  <rect x="9" y="9" width="1" height="1" fill="#6d2319" />
  <rect x="10" y="9" width="1" height="1" fill="#fa902b" />
  <rect x="11" y="9" width="1" height="1" fill="#fac26d" />
  <rect x="12" y="9" width="1" height="1" fill="#fac26d" />
  <rect x="13" y="9" width="1" height="1" fill="#fa902b" />
  <rect x="14" y="9" width="1" height="1" fill="#fac26d" />
  <rect x="15" y="9" width="1" height="1" fill="#fac26d" />
  <rect x="16" y="9" width="1" height="1" fill="#fa902b" />
  <rect x="17" y="9" width="1" height="1" fill="#fa902b" />
  <rect x="18" y="9" width="1" height="1" fill="#fa902b" />
  <rect x="19" y="9" width="1" height="1" fill="#ac412f" />
  <rect x="0" y="10" width="1" height="1" fill="#ab442f" />
  <rect x="1" y="10" width="1" height="1" fill="#fa902b" />
  <rect x="2" y="10" width="1" height="1" fill="#fa902b" />
  <rect x="3" y="10" width="1" height="1" fill="#ffffff" />
  <rect x="4" y="10" width="1" height="1" fill="#000000" />
  <rect x="5" y="10" width="1" height="1" fill="#000000" />
  <rect x="6" y="10" width="1" height="1" fill="#ffffff" />
  <rect x="7" y="10" width="1" height="1" fill="#fa902b" />
  <rect x="8" y="10" width="1" height="1" fill="#fa902b" />
  <rect x="9" y="10" width="1" height="1" fill="#6d2319" />
  <rect x="10" y="10" width="1" height="1" fill="#fa902b" />
  <rect x="11" y="10" width="1" height="1" fill="#fa902b" />
  <rect x="12" y="10" width="1" height="1" fill="#fac26d" />
  <rect x="13" y="10" width="1" height="1" fill="#fa902b" />
  <rect x="14" y="10" width="1" height="1" fill="#fa902b" />
  <rect x="15" y="10" width="1" height="1" fill="#fac26d" />
  <rect x="16" y="10" width="1" height="1" fill="#fa902b" />
  <rect x="17" y="10" width="1" height="1" fill="#fa902b" />
  <rect x="18" y="10" width="1" height="1" fill="#ac412f" />
  <rect x="0" y="11" width="1" height="1" fill="#ab442f" />
  <rect x="1" y="11" width="1" height="1" fill="#fa902b" />
  <rect x="2" y="11" width="1" height="1" fill="#fa902b" />
  <rect x="3" y="11" width="1" height="1" fill="#fa902b" />
  <rect x="4" y="11" width="1" height="1" fill="#ffffff" />
  <rect x="5" y="11" width="1" height="1" fill="#ffffff" />
  <rect x="6" y="11" width="1" height="1" fill="#fac26d" />
  <rect x="7" y="11" width="1" height="1" fill="#fac26d" />
  <rect x="8" y="11" width="1" height="1" fill="#fa902b" />
  <rect x="9" y="11" width="1" height="1" fill="#6d2319" />
  <rect x="10" y="11" width="1" height="1" fill="#fa902b" />
  <rect x="11" y="11" width="1" height="1" fill="#fa902b" />
  <rect x="12" y="11" width="1" height="1" fill="#ed6126" />
  <rect x="13" y="11" width="1" height="1" fill="#fa902b" />
  <rect x="14" y="11" width="1" height="1" fill="#fa902b" />
  <rect x="15" y="11" width="1" height="1" fill="#c03820" />
  <rect x="16" y="11" width="1" height="1" fill="#ed6126" />
  <rect x="17" y="11" width="1" height="1" fill="#ed6126" />
  <rect x="18" y="11" width="1" height="1" fill="#ac412f" />
  <rect x="0" y="12" width="1" height="1" fill="#ab442f" />
  <rect x="1" y="12" width="1" height="1" fill="#ab442f" />
  <rect x="2" y="12" width="1" height="1" fill="#ed6126" />
  <rect x="3" y="12" width="1" height="1" fill="#fa902b" />
  <rect x="4" y="12" width="1" height="1" fill="#fa902b" />
  <rect x="5" y="12" width="1" height="1" fill="#fa902b" />
  <rect x="6" y="12" width="1" height="1" fill="#fa902b" />
  <rect x="7" y="12" width="1" height="1" fill="#fa902b" />
  <rect x="8" y="12" width="1" height="1" fill="#8b4513" />
  <rect x="9" y="12" width="1" height="1" fill="#fa902b" />
  <rect x="10" y="12" width="1" height="1" fill="#ed6126" />
  <rect x="11" y="12" width="1" height="1" fill="#ed6126" />
  <rect x="12" y="12" width="1" height="1" fill="#fa902b" />
  <rect x="13" y="12" width="1" height="1" fill="#fa902b" />
  <rect x="14" y="12" width="1" height="1" fill="#ed6126" />
  <rect x="15" y="12" width="1" height="1" fill="#ed6126" />
  <rect x="16" y="12" width="1" height="1" fill="#ed6126" />
  <rect x="17" y="12" width="1" height="1" fill="#ed6126" />
  <rect x="18" y="12" width="1" height="1" fill="#fac26d" />
  <rect x="19" y="12" width="1" height="1" fill="#ac412f" />
  <rect x="1" y="13" width="1" height="1" fill="#ab442f" />
  <rect x="2" y="13" width="1" height="1" fill="#ed6126" />
  <rect x="3" y="13" width="1" height="1" fill="#ed6126" />
  <rect x="4" y="13" width="1" height="1" fill="#fa902b" />
  <rect x="5" y="13" width="1" height="1" fill="#fa902b" />
  <rect x="6" y="13" width="1" height="1" fill="#fa902b" />
  <rect x="7" y="13" width="1" height="1" fill="#8b4513" />
  <rect x="8" y="13" width="1" height="1" fill="#fa902b" />
  <rect x="9" y="13" width="1" height="1" fill="#6d2319" />
  <rect x="10" y="13" width="1" height="1" fill="#6d2319" />
  <rect x="11" y="13" width="1" height="1" fill="#ed6126" />
  <rect x="12" y="13" width="1" height="1" fill="#ed6126" />
  <rect x="13" y="13" width="1" height="1" fill="#ed6126" />
  <rect x="14" y="13" width="1" height="1" fill="#ed6126" />
  <rect x="15" y="13" width="1" height="1" fill="#ed6126" />
  <rect x="16" y="13" width="1" height="1" fill="#fa902b" />
  <rect x="17" y="13" width="1" height="1" fill="#fa902b" />
  <rect x="18" y="13" width="1" height="1" fill="#fac26d" />
  <rect x="19" y="13" width="1" height="1" fill="#fa902b" />
  <rect x="20" y="13" width="1" height="1" fill="#ac412f" />
  <rect x="2" y="14" width="1" height="1" fill="#ab442f" />
  <rect x="3" y="14" width="1" height="1" fill="#ed6126" />
  <rect x="4" y="14" width="1" height="1" fill="#ed6126" />
  <rect x="5" y="14" width="1" height="1" fill="#ed6126" />
  <rect x="6" y="14" width="1" height="1" fill="#ed6126" />
  <rect x="7" y="14" width="1" height="1" fill="#ed6126" />
  <rect x="8" y="14" width="1" height="1" fill="#6d2319" />
  <rect x="9" y="14" width="1" height="1" fill="#ed6126" />
  <rect x="10" y="14" width="1" height="1" fill="#ed6126" />
  <rect x="11" y="14" width="1" height="1" fill="#6d2319" />
  <rect x="12" y="14" width="1" height="1" fill="#ed6126" />
  <rect x="13" y="14" width="1" height="1" fill="#ed6126" />
  <rect x="14" y="14" width="1" height="1" fill="#ed6126" />
  <rect x="15" y="14" width="1" height="1" fill="#fac26d" />
  <rect x="17" y="14" width="1" height="1" fill="#fa902b" />
  <rect x="18" y="14" width="1" height="1" fill="#fa902b" />
  <rect x="19" y="14" width="1" height="1" fill="#fac26d" />
  <rect x="20" y="14" width="1" height="1" fill="#fac26d" />
  <rect x="3" y="15" width="1" height="1" fill="#ab442f" />
  <rect x="4" y="15" width="1" height="1" fill="#ab442f" />
  <rect x="5" y="15" width="1" height="1" fill="#ab442f" />
  <rect x="6" y="15" width="1" height="1" fill="#ab442f" />
  <rect x="7" y="15" width="1" height="1" fill="#ab442f" />
  <rect x="8" y="15" width="1" height="1" fill="#ed6126" />
  <rect x="9" y="15" width="1" height="1" fill="#6d2319" />
  <rect x="10" y="15" width="1" height="1" fill="#ed6126" />
  <rect x="11" y="15" width="1" height="1" fill="#ed6126" />
  <rect x="12" y="15" width="1" height="1" fill="#c03820" />
  <rect x="14" y="15" width="1" height="1" fill="#c03820" />
  <rect x="15" y="15" width="1" height="1" fill="#ed6126" />
  <rect x="16" y="15" width="1" height="1" fill="#ed6126" />
  <rect x="17" y="15" width="1" height="1" fill="#c03820" />
  <rect x="18" y="15" width="1" height="1" fill="#ed6126" />
  <rect x="19" y="15" width="1" height="1" fill="#fa902b" />
  <rect x="20" y="15" width="1" height="1" fill="#fa902b" />
  <rect x="21" y="15" width="1" height="1" fill="#ac412f" />
  <rect x="7" y="16" width="1" height="1" fill="#b53b25" />
  <rect x="8" y="16" width="1" height="1" fill="#fac26d" />
  <rect x="9" y="16" width="1" height="1" fill="#c03820" />
  <rect x="10" y="16" width="1" height="1" fill="#ed6126" />
  <rect x="11" y="16" width="1" height="1" fill="#fac26d" />
  <rect x="12" y="16" width="1" height="1" fill="#c03820" />
  <rect x="14" y="16" width="1" height="1" fill="#c03820" />
  <rect x="15" y="16" width="1" height="1" fill="#ed6126" />
  <rect x="16" y="16" width="1" height="1" fill="#c03820" />
  <rect x="18" y="16" width="1" height="1" fill="#833e21" />
  <rect x="19" y="16" width="1" height="1" fill="#ed6126" />
  <rect x="20" y="16" width="1" height="1" fill="#ed6126" />
  <rect x="21" y="16" width="1" height="1" fill="#ac412f" />
  <rect x="7" y="17" width="1" height="1" fill="#8b4513" />
  <rect x="8" y="17" width="1" height="1" fill="#fa902b" />
  <rect x="9" y="17" width="1" height="1" fill="#c03820" />
  <rect x="10" y="17" width="1" height="1" fill="#fac26d" />
  <rect x="11" y="17" width="1" height="1" fill="#ffa500" />
  <rect x="12" y="17" width="1" height="1" fill="#ffa500" />
  <rect x="13" y="17" width="1" height="1" fill="#c03820" />
  <rect x="15" y="17" width="1" height="1" fill="#c03820" />
  <rect x="19" y="17" width="1" height="1" fill="#833e21" />
  <rect x="20" y="17" width="1" height="1" fill="#ed6126" />
  <rect x="21" y="17" width="1" height="1" fill="#ed6126" />
  <rect x="7" y="18" width="1" height="1" fill="#b53b25" />
  <rect x="8" y="18" width="1" height="1" fill="#fa902b" />
  <rect x="9" y="18" width="1" height="1" fill="#b53b25" />
  <rect x="10" y="18" width="1" height="1" fill="#c03820" />
  <rect x="11" y="18" width="1" height="1" fill="#fac26d" />
  <rect x="12" y="18" width="1" height="1" fill="#ed6126" />
  <rect x="13" y="18" width="1" height="1" fill="#fac26d" />
  <rect x="14" y="18" width="1" height="1" fill="#c03820" />
  <rect x="20" y="18" width="1" height="1" fill="#ac412f" />
  <rect x="21" y="18" width="1" height="1" fill="#ac412f" />
  <rect x="7" y="19" width="1" height="1" fill="#b53b25" />
  <rect x="8" y="19" width="1" height="1" fill="#b53b25" />
  <rect x="11" y="19" width="1" height="1" fill="#c03820" />
  <rect x="12" y="19" width="1" height="1" fill="#ed6126" />
  <rect x="13" y="19" width="1" height="1" fill="#ed6126" />
  <rect x="14" y="19" width="1" height="1" fill="#c03820" />
</svg>